:SAMPLES-PER-SECOND 24
:FULLY-SPECIFIED
:DEGREES
409
root  0.992618 37.9492 21.0951 11.0056 36.7426 3.82568
RightUpLeg  -32.0225 -7.27313 -13.9604
RightLeg  2.45072 -6.24916 -3.92858
RightFoot  -5.08965 -0.0866434 0.979255
RightToes  -2.08645e-008 3.77894e-005 6.81332e-007
Spine  4.78728 -4.249 -10.1058
Spine1  5.09255 -6.2254 9.86357
HEad  -36.7619 -8.43669 7.55865
LeftShoulder1  7.67859 -13.502 -39
LeftArm  2.58708 25.1021 -21.1199
LeftForeArm  152.326 -73.3518 -145.008
LeftHand  -0.520068 -1.76503 8.62135
RightShoulder  4.01256 6.60453 33.8089
RightArm  0.519544 -33.0778 29.0701
RightForeArm  121.96 80.247 106.155
RightHand  -0.590683 9.19492 -5.07148
LeftUpLeg  2.91302 2.35965 3.21831
LeftLeg  11.9545 7.18754 2.37072
LeftFoot  -21.4725 -1.12379 -14.0708
LeftToes  1.24767e-006 1.47042e-008 1.32732e-009
410
root  1.1766 37.5094 22.2202 11.3134 34.4192 4.39886
RightUpLeg  -33.5343 -8.20979 -13.801
RightLeg  -0.112262 -8.1627 -3.52971
RightFoot  -5.9022 0.0195693 -1.27248
RightToes  -2.08645e-008 3.77894e-005 6.81332e-007
Spine  4.90841 -4.57911 -8.22874
Spine1  4.19806 -6.02383 8.50791
HEad  -36.5728 -7.6829 5.89274
LeftShoulder1  7.89593 -13.7034 -39.7002
LeftArm  1.91759 17.4057 -20.9563
LeftForeArm  147.579 -74.8705 -140.577
LeftHand  -0.531934 -1.3836 9.2785
RightShoulder  4.03121 6.6318 33.8858
RightArm  -1.37438 -31.8752 28.8586
RightForeArm  109.928 80.6321 93.8077
RightHand  -0.404508 9.20344 -3.58111
LeftUpLeg  4.72117 2.59465 3.04812
LeftLeg  12.7844 8.45477 2.62072
LeftFoot  -23.3429 -1.5842 -16.2727
LeftToes  1.24767e-006 1.47042e-008 1.32732e-009
411
root  1.33425 37.0781 23.6947 11.9694 33.1129 4.74194
RightUpLeg  -35.1898 -8.13391 -13.9306
RightLeg  1.21537 -12.0765 -3.69594
RightFoot  -7.48488 0.0571541 -3.1993
RightToes  -2.08645e-008 3.77894e-005 6.81332e-007
Spine  4.81952 -5.48426 -7.82147
Spine1  2.48893 -7.00644 10.0872
HEad  -36.1386 -5.80005 3.62646
LeftShoulder1  7.79028 -13.6246 -39.3145
LeftArm  0.357567 11.4321 -22.5694
LeftForeArm  146.934 -74.9027 -140.365
LeftHand  -0.510589 -1.10075 9.2779
RightShoulder  3.97096 6.5934 33.4426
RightArm  -1.43209 -31.6624 27.5251
RightForeArm  110.686 80.4995 96.5356
RightHand  -0.42229 9.00009 -3.78832
LeftUpLeg  6.32704 2.77957 3.54434
LeftLeg  13.4229 9.6868 3.15744
LeftFoot  -23.7214 -1.88713 -18.5623
LeftToes  1.24767e-006 1.47042e-008 1.32732e-009
412
root  1.41175 36.8847 25.4465 12.4343 32.6776 5.05157
RightUpLeg  -35.8779 -7.89431 -13.7772
RightLeg  4.13684 -14.4714 -4.01156
RightFoot  -5.01689 0.216647 -4.45935
RightToes  -2.08645e-008 3.77894e-005 6.81332e-007
Spine  4.68574 -6.5412 -9.00912
Spine1  1.53706 -9.06942 14.658
HEad  -35.6818 -3.471 1.30088
LeftShoulder1  7.49962 -13.3946 -38.2625
LeftArm  -0.726273 6.14411 -24.286
LeftForeArm  147.575 -74.5757 -141.341
LeftHand  -0.545356 -0.836888 10.2974
RightShoulder  3.91943 6.55805 33.0695
RightArm  -1.33967 -32.1516 25.5584
RightForeArm  116.386 80.2909 102.939
RightHand  -0.49626 8.93487 -4.39851
LeftUpLeg  9.13572 3.16263 4.97597
LeftLeg  12.0409 8.88889 2.90667
LeftFoot  -21.0481 -1.6413 -20.636
LeftToes  1.24767e-006 1.47042e-008 1.32732e-009
413
root  1.4874 36.9207 27.3976 12.2854 30.3699 3.86334
RightUpLeg  -38.4017 -5.40806 -12.3063
RightLeg  9.99178 -13.6801 -4.34636
RightFoot  1.89685 0.674749 -5.68031
RightToes  -2.08645e-008 3.77894e-005 6.81332e-007
Spine  4.14129 -7.06642 -6.64889
Spine1  0.473521 -9.99966 16.5755
HEad  -35.3466 -1.20293 -1.23061
LeftShoulder1  7.36257 -13.2992 -37.7205
LeftArm  -1.60249 1.43544 -24.0453
LeftForeArm  148.636 -74.4641 -141.82
LeftHand  -0.576165 -0.758564 10.9989
RightShoulder  3.91315 6.52135 33.1496
RightArm  -1.90364 -33.1007 23.8968
RightForeArm  113.239 80.4383 99.2938
RightHand  -0.669595 8.96482 -5.79282
LeftUpLeg  11.6971 4.30896 7.63778
LeftLeg  11.765 7.78917 2.43823
LeftFoot  -17.7332 -1.37351 -26.1164
LeftToes  1.24767e-006 1.47042e-008 1.32732e-009
414
root  1.55692 36.9658 29.5425 11.2429 25.8866 1.58698
RightUpLeg  -41.4039 -2.06218 -9.28708
RightLeg  17.4965 -10.6512 -4.05047
RightFoot  6.38854 1.00385 -6.14841
RightToes  -2.08645e-008 3.77894e-005 6.81332e-007
Spine  3.93574 -7.24656 -1.75394
Spine1  -1.42996 -9.70391 15.6565
HEad  -35.5638 2.18187 -4.40219
LeftShoulder1  7.28149 -13.2259 -37.4383
LeftArm  -3.34711 -1.15304 -23.1134
LeftForeArm  148.872 -74.7339 -141.184
LeftHand  -0.561595 -1.34963 9.83975
RightShoulder  3.89297 6.52792 32.9226
RightArm  -1.61031 -31.998 22.8752
RightForeArm  91.1995 80.3088 77.4898
RightHand  -0.286294 9.21848 -2.64549
LeftUpLeg  11.5577 6.34277 10.7631
LeftLeg  18.7763 10.0043 4.13656
LeftFoot  -10.4713 0.356125 -30.7548
LeftToes  1.24767e-006 1.47042e-008 1.32732e-009
415
root  1.51978 37.0533 31.5826 9.3313 22.0804 0.291565
RightUpLeg  -41.1132 -0.394376 -5.91131
RightLeg  23.1887 -7.88406 -3.90219
RightFoot  6.50451 1.09964 -6.70718
RightToes  -2.08645e-008 3.77894e-005 6.81332e-007
Spine  5.12939 -7.73607 0.0914371
Spine1  -3.07371 -10.1603 16.9854
HEad  -34.8893 6.42955 -7.65263
LeftShoulder1  7.08157 -13.0393 -36.7434
LeftArm  -3.50227 -2.49906 -23.1118
LeftForeArm  144.408 -75.7788 -137.347
LeftHand  -0.539556 -1.83315 8.85609
RightShoulder  3.86217 6.6047 32.3214
RightArm  0.0789825 -27.7804 21.9493
RightForeArm  65.4146 78.0045 51.7819
RightHand  -0.456244 9.1811 -4.01817
LeftUpLeg  7.39531 5.7094 12.4287
LeftLeg  32.9814 10.4514 7.57586
LeftFoot  4.89632 3.73714 -26.001
LeftToes  1.24767e-006 1.47042e-008 1.32732e-009
416
root  1.42221 37.1694 33.2062 6.95959 19.5898 0.125793
RightUpLeg  -38.7184 2.06266 -4.45788
RightLeg  27.096 -7.85169 -4.57237
RightFoot  5.07796 1.19634 -8.03797
RightToes  -2.08645e-008 3.77894e-005 6.81332e-007
Spine  7.37159 -7.98474 0.462553
Spine1  -4.28803 -10.5119 19.0041
HEad  -32.5617 9.13252 -10.46
LeftShoulder1  6.88889 -12.8747 -36.0176
LeftArm  -0.356451 -4.77308 -23.5542
LeftForeArm  137.945 -77.0686 -131.411
LeftHand  -0.53728 -1.97314 8.66
RightShoulder  3.82911 6.60836 31.9785
RightArm  1.81262 -22.6564 21.2131
RightForeArm  52.6869 74.9426 38.1073
RightHand  -0.585251 9.02107 -5.09102
LeftUpLeg  -0.654092 2.52103 12.1274
LeftLeg  50.4954 5.49121 7.50152
LeftFoot  13.7604 3.94624 -17.7997
LeftToes  1.24767e-006 1.47042e-008 1.32732e-009
417
root  1.31954 37.5111 34.7277 4.48279 16.6261 0.853943
RightUpLeg  -34.6392 4.35997 -3.65823
RightLeg  28.6711 -7.31648 -4.54352
RightFoot  2.82562 1.09865 -8.65586
RightToes  -2.08645e-008 3.77894e-005 6.81332e-007
Spine  9.01733 -7.13433 1.35708
Spine1  -5.15788 -9.26387 17.1309
HEad  -30.4515 9.77809 -13.1345
LeftShoulder1  6.75183 -12.7496 -35.5099
LeftArm  3.18511 -6.89986 -23.9589
LeftForeArm  139.397 -77.4592 -130.192
LeftHand  -0.447564 -2.68311 6.67293
RightShoulder  3.81988 6.60392 31.9038
RightArm  3.04544 -16.557 21.4381
RightForeArm  44.4292 71.4537 29.6609
RightHand  -0.547422 8.94012 -4.80949
LeftUpLeg  -11.2321 3.04985 11.0741
LeftLeg  69.2547 2.26228 7.75273
LeftFoot  9.07286 1.96828 -11.0319
LeftToes  1.24767e-006 1.47042e-008 1.32732e-009
418
root  1.15407 38.0392 36.07 1.52649 13.2781 2.03888
RightUpLeg  -28.675 3.68197 -2.7443
RightLeg  27.5749 -4.16747 -2.59374
RightFoot  0.635251 0.795909 -7.51262
RightToes  -2.08645e-008 3.77894e-005 6.81332e-007
Spine  9.92252 -5.59424 2.119
Spine1  -4.49595 -7.33619 13.1035
HEad  -28.6027 9.83446 -15.1515
LeftShoulder1  6.65592 -12.6343 -35.2183
LeftArm  5.43746 -6.21805 -24.1197
LeftForeArm  148.743 -76.4258 -136.207
LeftHand  -0.25637 -3.82799 3.50529
RightShoulder  3.90147 6.76201 32.1163
RightArm  4.96693 -8.29927 22.3686
RightForeArm  36.1158 66.135 22.1715
RightHand  -0.551792 8.90944 -4.85958
LeftUpLeg  -24.2226 9.07403 10.0401
LeftLeg  85.5806 0.0866983 8.91539
LeftFoot  1.47107 0.95972 -8.65698
LeftToes  1.24767e-006 1.47042e-008 1.32732e-009
419
root  0.89877 38.5456 37.1467 -2.4342 10.2761 3.69495
RightUpLeg  -21.6981 2.48104 -2.66936
RightLeg  25.9087 -0.704566 -0.599473
RightFoot  -0.507791 0.661607 -6.99857
RightToes  -2.08645e-008 3.77894e-005 6.81332e-007
Spine  11.6209 -3.46752 2.06016
Spine1  -3.56897 -4.78992 9.38944
HEad  -24.9172 9.29846 -15.2434
LeftShoulder1  6.66164 -12.6136 -35.3054
LeftArm  8.18334 -3.03114 -23.7021
LeftForeArm  156.648 -74.1949 -143.906
LeftHand  -0.134622 -4.15646 1.91371
RightShoulder  3.99665 6.87957 32.604
RightArm  8.24881 0.0336032 22.9905
RightForeArm  30.6768 60.0871 16.8504
RightHand  -0.837728 8.98992 -7.12711
LeftUpLeg  -39.0722 16.9792 7.37223
LeftLeg  96.5702 -1.2132 6.19666
LeftFoot  -1.90816 0.719992 -8.57843
LeftToes  1.24767e-006 1.47042e-008 1.32732e-009
420
root  0.603901 38.9946 38.0833 -8.23535 8.11395 5.89832
RightUpLeg  -13.0529 5.14821 -3.37568
RightLeg  24.6723 -0.746125 -0.595742
RightFoot  -1.46941 0.670373 -7.86116
RightToes  -2.08645e-008 3.77894e-005 6.81332e-007
Spine  15.2281 -1.04804 1.84842
Spine1  -3.04164 -1.67778 4.7471
HEad  -19.7266 7.37031 -13.3704
LeftShoulder1  6.60199 -12.5378 -35.1335
LeftArm  10.9016 0.32806 -22.8506
LeftForeArm  161.55 -71.6579 -149.699
LeftHand  -0.0854399 -4.18924 1.31547
RightShoulder  3.96849 6.84146 32.4732
RightArm  12.4149 6.92782 23.3816
RightForeArm  27.6958 54.715 13.5899
RightHand  -0.791975 9.61971 -6.49851
LeftUpLeg  -54.1228 22.2106 2.6727
LeftLeg  100.362 -1.0997 3.65517
LeftFoot  -4.2213 0.549283 -8.4245
LeftToes  1.24767e-006 1.47042e-008 1.32732e-009
